<?xml version="1.0" encoding="UTF-8" standalone="no"?>
<svg
   version="1.0"
   width="1273pt"
   height="1280pt"
   viewBox="0 0 1273 1280"
   preserveAspectRatio="xMidYMid"
   id="svg2"
   sodipodi:docname="153639.svg"
   xml:space="preserve"
   inkscape:export-filename="logo-no-text.png"
   inkscape:export-xdpi="96"
   inkscape:export-ydpi="96"
   inkscape:version="1.4.2 (f4327f4, 2025-05-13)"
   xmlns:inkscape="http://www.inkscape.org/namespaces/inkscape"
   xmlns:sodipodi="http://sodipodi.sourceforge.net/DTD/sodipodi-0.dtd"
   xmlns:xlink="http://www.w3.org/1999/xlink"
   xmlns="http://www.w3.org/2000/svg"
   xmlns:svg="http://www.w3.org/2000/svg"><defs
     id="defs2"><linearGradient
       id="linearGradient1"
       inkscape:collect="always"><stop
         style="stop-color:#61561d;stop-opacity:0.3119584;"
         offset="0.18356165"
         id="stop1" /><stop
         style="stop-color:#d0ad1b;stop-opacity:0.19410746;"
         offset="0.84246576"
         id="stop3" /></linearGradient><radialGradient
       inkscape:collect="always"
       xlink:href="#linearGradient1"
       id="radialGradient10"
       gradientUnits="userSpaceOnUse"
       gradientTransform="matrix(1,0,0,1.7012674,0,-114.18866)"
       cx="101.79986"
       cy="162.83183"
       fx="101.79986"
       fy="162.83183"
       r="95.71225" /><radialGradient
       inkscape:collect="always"
       xlink:href="#linearGradient1"
       id="radialGradient11"
       gradientUnits="userSpaceOnUse"
       gradientTransform="matrix(1,0,0,1.7012674,0,-114.18866)"
       cx="101.79986"
       cy="162.83183"
       fx="101.79986"
       fy="162.83183"
       r="95.71225" /><radialGradient
       inkscape:collect="always"
       xlink:href="#linearGradient1"
       id="radialGradient12"
       gradientUnits="userSpaceOnUse"
       gradientTransform="matrix(1,0,0,1.7012674,0,-114.18866)"
       cx="101.79986"
       cy="162.83183"
       fx="101.79986"
       fy="162.83183"
       r="95.71225" /></defs><sodipodi:namedview
     id="namedview2"
     pagecolor="#505050"
     bordercolor="#eeeeee"
     borderopacity="1"
     inkscape:showpageshadow="0"
     inkscape:pageopacity="0"
     inkscape:pagecheckerboard="0"
     inkscape:deskcolor="#505050"
     inkscape:document-units="pt"
     showguides="true"
     inkscape:zoom="0.25894386"
     inkscape:cx="882.43067"
     inkscape:cy="1770.6541"
     inkscape:window-width="1920"
     inkscape:window-height="1171"
     inkscape:window-x="-32000"
     inkscape:window-y="-32000"
     inkscape:window-maximized="0"
     inkscape:current-layer="svg2"><inkscape:page
       x="0"
       y="0"
       width="1273"
       height="1280"
       id="page2"
       margin="0"
       bleed="0" /></sodipodi:namedview><metadata
     id="metadata1">
Created by potrace 1.15, written by Peter Selinger 2001-2017
</metadata><g
     id="g51"><g
       id="g53"
       transform="matrix(1.2673362,0,0,1.2673362,34.793197,59.873933)"><g
         id="g52"><path
           id="path21"
           style="fill:#353829;fill-opacity:1;stroke:#000000;stroke-width:0.817945;stroke-opacity:0"
           d="m 758.72908,441.84802 c 26.63128,61.1898 20.34909,147.84441 -16.6905,227.98162 -8.4169,18.21048 -17.21533,32.12823 -26.24542,42.95083 v 138.12621 c 8.32261,-2.35006 16.25972,-4.73047 21.21887,-5.79297 13.13894,-2.81498 40.38093,-13.34775 48.0911,-17.77135 30.11305,-17.27692 50.21285,-53.6165 65.11437,-78.04981 13.23156,-21.69488 18.30989,-31.26147 25.69213,-48.40114 5.50349,-12.77775 6.95279,-16.53224 11.53124,-29.90348 4.83408,-14.11793 8.46536,-27.4567 13.22991,-48.59443 1.95193,-8.66048 6.20478,-41.6611 6.74357,-52.32999 1.92805,-38.1842 -0.25739,-71.90911 -6.76399,-104.37735 -1.37111,-6.84221 -4.27382,-19.30899 -5.50225,-23.83814 z"
           sodipodi:nodetypes="csccsssssssscc" /><path
           id="path5"
           style="fill:#27292c;fill-opacity:1;stroke:#000000;stroke-width:0.813285;stroke-opacity:0"
           d="m 463.02811,59.378831 -8.85199,0.158899 c -8.96447,0.160929 -24.20185,1.73708 -28.87062,2.985933 -1.40209,0.375091 -3.18602,1.490573 -3.96362,2.479285 -1.9627,2.49524 -4.6019,11.638191 -6.93679,24.032367 -0.87521,4.645413 -3.9365,19.021575 -5.14017,24.139695 -0.53537,2.27593 -1.78756,7.76211 -2.78417,12.19148 -0.99676,4.42951 -2.18245,8.3478 -2.63391,8.70745 -0.45167,0.35964 -4.23551,1.34327 -8.40821,2.18716 -4.17256,0.84402 -8.8277,1.93441 -10.34496,2.42206 -1.51733,0.48765 -5.8617,1.72236 -9.65504,2.74399 -3.79312,1.02164 -10.93181,3.10814 -15.86311,4.63643 -14.5194,4.5 -16.45911,4.95827 -18.65592,4.41029 -2.15075,-0.5366 -3.55466,-1.89185 -16.14226,-15.59551 -4.34451,-4.72983 -13.23022,-13.95321 -19.74659,-20.49663 -11.08992,-11.13582 -12.01118,-11.89811 -14.40598,-11.89811 -2.87642,0 -17.26216,6.95303 -30.72424,14.84967 -4.35474,2.55434 -10.08895,5.88745 -12.7441,7.40768 -6.37923,3.65228 -17.15722,10.75645 -22.94017,15.12019 -6.91133,5.2153 -9.82104,8.19115 -9.82104,10.04441 0,3.32506 5.65718,22.60511 14.97709,51.04632 l 5.26056,16.05211 -6.63473,6.70776 c -3.64887,3.69006 -8.00898,8.4175 -9.68797,10.50378 -1.67906,2.08635 -6.89334,7.52822 -11.58742,12.09422 -4.694,4.56586 -10.38006,10.25691 -12.63524,12.6467 -4.76044,5.04495 -3.8122,4.96024 -16.59031,1.48441 -8.03066,-2.18433 -11.01362,-3.10175 -37.13713,-11.41569 -13.64687,-4.34313 -18.02278,-4.92811 -20.46095,-2.73972 -2.10949,1.8933 -10.02694,13.1324 -14.82675,21.04774 -12.256823,20.21264 -27.924413,50.39912 -27.924413,53.80047 0,1.43973 2.22204,3.9238 10.86168,12.14143 5.97455,5.68242 13.811073,12.75831 17.414833,15.72568 7.20164,5.93017 24.1397,22.6091 24.1397,23.77034 0,0.40207 -1.26176,5.16026 -2.80274,10.57406 -3.17892,11.16998 -7.47825,27.27742 -8.24221,30.87893 -0.28154,1.32762 -1.19903,5.67344 -2.03834,9.65642 -2.23539,10.60822 -2.10463,10.43046 -8.99515,12.14999 -15.704653,3.91873 -28.057063,6.78536 -44.073849,10.22609 -9.641333,2.0712 -17.972675,4.20802 -18.512757,4.74811 -2.791063,2.79113 -4.513058,49.80855 -2.653776,72.46058 0.619132,7.5457 1.509212,14.50664 1.978221,15.46808 0.762438,1.56281 2.11529,2.06112 12.775503,4.71373 6.557203,1.63171 16.488705,3.88987 22.069815,5.01717 16.53787,3.34014 32.004933,7.51937 33.693133,9.10539 1.39499,1.31042 2.84945,6.16913 5.13314,17.15287 2.66066,12.79689 6.13468,25.90267 10.01432,37.78403 1.85797,5.6899 1.6325,6.19285 -6.45009,14.46617 -4.07792,4.17401 -11.28022,10.96343 -16.00628,15.08588 -12.331803,10.75689 -26.835103,24.31405 -27.659553,25.85452 -0.54813,1.02403 -0.13685,2.74552 1.83934,7.68683 2.95105,7.37954 12.2463,26.14055 16.59459,33.4955 1.64439,2.78142 2.99028,5.17071 2.99028,5.30915 0,1.13492 16.500893,26.10792 19.789603,29.94992 3.56685,4.16726 3.05578,4.23485 28.83335,-3.77035 5.31067,-1.64918 12.75831,-3.82953 16.55172,-4.84543 8.64987,-2.31662 17.50969,-4.73382 22.35178,-6.09792 2.51105,-0.70746 4.12927,-0.83728 4.95277,-0.39655 1.22057,0.65321 10.25887,9.87 19.92131,20.31351 2.80752,3.0346 9.39112,9.74642 14.63065,14.91407 5.2396,5.16787 9.52761,9.68318 9.52761,10.03441 0,0.35138 -2.80535,9.00233 -6.23244,19.22552 -13.57471,40.49387 -15.1489,45.39224 -15.1489,47.12425 0,2.40132 6.72835,8.7271 15.65562,14.71942 17.5028,11.74886 45.88439,28.16032 56.51436,32.67824 3.82409,1.62518 4.58406,1.74151 6.40425,0.98762 1.95727,-0.81081 13.74413,-12.77187 35.97052,-36.50145 5.46942,-5.83944 10.78887,-11.24773 11.82218,-12.01844 l 1.87952,-1.40137 9.15687,2.80282 c 5.03603,1.54155 13.34598,3.95426 18.46693,5.36071 4.99272,1.37134 12.64053,3.48881 17.23873,4.7724 V 705.30894 c -5.79266,-2.44288 -11.20326,-5.03436 -15.47946,-7.47637 -2.29544,-1.31079 -5.25991,-2.99927 -6.58752,-3.75178 -20.59497,-11.67416 -27.75194,-16.83195 -43.10478,-31.0593 -15.29308,-14.17172 -23.33071,-23.19066 -32.87718,-36.89091 -9.1196,-13.08764 -12.61631,-18.80902 -18.0217,-29.49178 -17.7517,-35.08363 -25.69257,-73.70176 -23.32809,-113.44545 2.6215,-44.06499 16.31356,-83.65305 41.03062,-118.62716 9.45001,-13.37143 16.09497,-21.30447 26.39561,-31.51729 21.6425,-21.45779 56.67964,-43.70934 81.28683,-51.62462 1.51741,-0.48808 4.9313,-1.6903 7.58667,-2.67111 9.29779,-3.4342 27.9833,-6.91293 52.07114,-9.69369 2.08643,-0.24078 4.41458,-0.899 5.17332,-1.46287 1.36873,-1.01729 1.37845,-1.82737 1.37845,-104.62203 z" /><g
           id="g49"
           transform="matrix(0.67393424,0,0,0.67393424,8205.5612,-2851.4646)"><g
             id="g47"
             transform="matrix(0.92539425,0,0,0.92539425,-2454.403,419.40819)"><path
               d="m -9088.4482,4736.8792 c -2.2663,-1.4338 -139.4269,-1.1922 -140.8673,0.248 -1.4433,1.4434 -1.5628,13.7889 -0.1592,16.4117 0.9819,1.8344 2.8028,1.8828 71.5111,1.8828 h 70.5032 l 0.6169,-2.4574 c 1.0474,-4.1732 -0.043,-15.0969 -1.6047,-16.0851 z"
               style="fill:#f1db50;stroke:#000000;stroke-width:1.14758;stroke-opacity:0"
               id="path42" /><path
               d="m -9144.1464,4593.8871 c -8.1221,0.056 -88.8394,24.6598 -97.7707,29.8015 -3.8356,2.208 -4.1306,2.6777 -4.1306,6.4752 0.01,5.3883 3.2403,18.3554 5.2313,20.9778 1.3038,1.7175 3.8251,1.2801 29.6705,-5.1386 54.8943,-13.6332 72.6601,-18.7672 75.3959,-21.7902 2.237,-2.4719 2.0364,-5.2548 -1.1693,-16.3936 -3.4369,-11.9426 -4.4771,-13.9511 -7.2271,-13.9321 z"
               style="fill:#f1db50;stroke:#000000;stroke-width:1.14758;stroke-opacity:0"
               id="path40" /><path
               d="m -9144.1464,4593.8871 c 2.75,-0.019 3.7902,1.9895 7.2271,13.9321 3.2057,11.1388 3.4063,13.9217 1.1693,16.3936 -2.7358,3.023 -20.5016,8.157 -75.3959,21.7902 -25.8454,6.4187 -28.3667,6.8561 -29.6705,5.1386 -1.991,-2.6224 -5.2213,-15.5895 -5.2313,-20.9778 0,-3.7975 0.295,-4.2672 4.1306,-6.4752 8.9313,-5.1417 89.6486,-29.7455 97.7707,-29.8015 z"
               style="fill:#f1db50;stroke:#000000;stroke-width:1.14758;stroke-opacity:0"
               id="path39" /><path
               d="m -9173.8028,4447.8973 c -3.9112,0 -14.9916,6.075 -47.9207,26.2596 -7.2259,4.4292 -23.1993,13.7158 -35.4945,20.6371 -24.6651,13.8845 -29.7459,17.5214 -32.769,23.4473 -1.9957,3.9116 -2.0028,4.1191 -0.3467,9.4043 1.7078,5.4508 4.7653,12.161 6.5639,14.4059 1.7943,2.2396 5.1504,1.2523 12.785,-3.7598 4.1687,-2.7366 14.4394,-8.4122 22.8244,-12.6136 8.385,-4.2013 17.8732,-9.1179 21.0846,-10.9244 14.5282,-8.1724 27.3324,-15.5236 28.2231,-16.204 0.5352,-0.4089 5.3522,-3.0646 10.7046,-5.9027 16.2037,-8.5916 28.1455,-16.1194 29.5898,-18.6514 1.2538,-2.1977 1.0719,-2.9994 -2.1732,-9.6261 -5.2688,-10.7588 -9.8035,-16.4722 -13.0713,-16.4722 z"
               style="fill:#f1db50;stroke:#000000;stroke-width:1.14758;stroke-opacity:0"
               id="path38" /><path
               d="m -9173.8028,4447.8973 c 3.2678,0 7.8025,5.7134 13.0713,16.4722 3.2451,6.6267 3.427,7.4284 2.1732,9.6261 -1.4443,2.532 -13.3861,10.0598 -29.5898,18.6514 -5.3524,2.8381 -10.1694,5.4938 -10.7046,5.9027 -0.8907,0.6804 -13.6949,8.0316 -28.2231,16.204 -3.2114,1.8065 -12.6996,6.7231 -21.0846,10.9244 -8.385,4.2014 -18.6557,9.877 -22.8244,12.6136 -7.6346,5.0121 -10.9907,5.9994 -12.785,3.7598 -1.7986,-2.2449 -4.8561,-8.9551 -6.5639,-14.4059 -1.6561,-5.2852 -1.649,-5.4927 0.3467,-9.4043 3.0231,-5.9259 8.1039,-9.5628 32.769,-23.4473 12.2952,-6.9213 28.2686,-16.2079 35.4945,-20.6371 32.9291,-20.1846 44.0095,-26.2596 47.9207,-26.2596 z"
               style="fill:#f1db50;stroke:#000000;stroke-width:1.14758;stroke-opacity:0"
               id="path37" /><path
               d="m -9685.3843,4349.511 v 379.4269 h 143.063 c 128.873,-0.1044 144.527,0 279.565,0 -21.783,-208.7931 -201.956,-370.5487 -422.628,-379.4269 z"
               style="fill:#f0db51;stroke:#000000;stroke-width:0;stroke-opacity:0"
               id="path47"
               sodipodi:nodetypes="ccccc" /><path
               d="m -9291.3578,4354.5415 c -2.6843,-0.1235 -5.3852,1.9908 -10.2934,6.4591 -14.2701,12.9916 -39.4366,38.5521 -46.0942,46.816 -3.7436,4.6466 -9.813,11.4031 -13.4886,15.0106 -5.4491,5.3484 -6.5798,6.9735 -6.1204,8.8036 0.3097,1.2343 4.9674,6.272 10.3498,11.1985 5.3826,4.9264 10.2577,8.9588 10.8336,8.9588 1.2273,0 3.8629,-2.7147 16.6032,-17.0971 12.6764,-14.3103 13.8528,-15.5415 21.7176,-22.7458 11.739,-10.7531 27.0771,-25.731 31.3841,-30.6462 6.5063,-7.425 5.633,-10.3637 -6.318,-21.2802 -3.8496,-3.5165 -6.2052,-5.3684 -8.5737,-5.4773 z"
               style="fill:#f1db50;stroke:#000000;stroke-width:1.14758;stroke-opacity:0"
               id="path33" /><path
               d="m -9388.5923,4241.095 c -4.2199,0.1393 -7.8437,5.9415 -21.9071,29.6805 -7.1346,12.0432 -14.9203,25.1376 -17.3007,29.098 -2.3805,3.9601 -5.1012,8.5567 -6.0458,10.2167 -0.9445,1.6598 -7.7155,13.2263 -15.0469,25.7012 -7.3314,12.4749 -13.1894,23.4062 -13.0189,24.2919 0.3782,1.9635 9.8982,8.8711 17.7281,12.8637 3.1632,1.6131 6.1475,2.9332 6.6324,2.9332 3.5126,0 10.1615,-9.1843 22.01,-30.3982 3.6665,-6.5648 9.9705,-17.8482 14.0067,-25.0742 4.0361,-7.2258 9.11,-15.9847 11.2751,-19.4638 9.9845,-16.0446 21.7266,-36.0824 23.5158,-40.1272 1.0839,-2.4503 1.6827,-5.2066 1.3305,-6.1244 -0.807,-2.1034 -13.5387,-10.47 -19.2521,-12.652 -1.5173,-0.5795 -2.7455,-0.9844 -3.9271,-0.9454 z"
               style="fill:#f1db50;stroke:#000000;stroke-width:1.14758;stroke-opacity:0"
               id="path32" /><path
               d="m -9388.5923,4241.095 c 1.1816,-0.039 2.4098,0.3659 3.9271,0.9454 5.7134,2.182 18.4451,10.5486 19.2521,12.652 0.3522,0.9178 -0.2466,3.6741 -1.3305,6.1244 -1.7892,4.0448 -13.5313,24.0826 -23.5158,40.1272 -2.1651,3.4791 -7.239,12.238 -11.2751,19.4638 -4.0362,7.226 -10.3402,18.5094 -14.0067,25.0742 -11.8485,21.2139 -18.4974,30.3982 -22.01,30.3982 -0.4849,0 -3.4692,-1.3201 -6.6324,-2.9332 -7.8299,-3.9926 -17.3499,-10.9002 -17.7281,-12.8637 -0.1705,-0.8857 5.6875,-11.817 13.0189,-24.2919 7.3314,-12.4749 14.1024,-24.0414 15.0469,-25.7012 0.9446,-1.66 3.6653,-6.2566 6.0458,-10.2167 2.3804,-3.9604 10.1661,-17.0548 17.3007,-29.098 14.0634,-23.739 17.6872,-29.5412 21.9071,-29.6805 z m 97.2345,113.4465 c 2.3685,0.1089 4.7241,1.9608 8.5737,5.4773 11.951,10.9165 12.8243,13.8552 6.318,21.2802 -4.307,4.9152 -19.6451,19.8931 -31.3841,30.6462 -7.8648,7.2043 -9.0412,8.4355 -21.7176,22.7458 -12.7403,14.3824 -15.3759,17.0971 -16.6032,17.0971 -0.5759,0 -5.451,-4.0324 -10.8336,-8.9588 -5.3824,-4.9265 -10.0401,-9.9642 -10.3498,-11.1985 -0.4594,-1.8301 0.6713,-3.4552 6.1204,-8.8036 3.6756,-3.6075 9.745,-10.364 13.4886,-15.0106 6.6576,-8.2639 31.8241,-33.8244 46.0942,-46.816 4.9082,-4.4683 7.6091,-6.5826 10.2934,-6.4591 z"
               style="fill:#f1db50;stroke:#000000;stroke-width:1.14758;stroke-opacity:0"
               id="path31" /><path
               d="m -9539.4606,4214.7427 c -0.2014,0.01 -0.3629,0.034 -0.4798,0.071 -1.0211,0.3241 -2.8333,3.1272 -4.2717,6.6082 -2.4457,5.9188 -4.1409,11.6382 -16.0751,54.2588 -3.2285,11.5301 -7.1992,25.0362 -8.8257,30.0132 -1.6265,4.9772 -2.9574,9.8966 -2.9574,10.9304 0,2.2043 0.682,2.5007 16.0569,6.9953 12.818,3.7471 16.3168,4.2186 17.7301,2.3848 0.5156,-0.6691 3.21,-9.9745 5.9873,-20.6794 2.7771,-10.7051 6.5287,-24.9394 8.3379,-31.63 10.858,-40.1595 12.6098,-48.0665 11.2227,-50.6583 -0.4691,-0.8765 -2.7338,-2.2967 -5.0338,-3.155 -6.6296,-2.4741 -18.6704,-5.286 -21.6914,-5.1386 z"
               style="fill:#f1db50;stroke:#000000;stroke-width:1.14758;stroke-opacity:0"
               id="path30" /><path
               d="m -9667.8271,4160.0485 v 0 l -13.7285,0.2681 v 71.5192 71.5213 l 2.9211,0.6229 c 4.225,0.903 24.1169,0.9598 25.5136,0.073 1.8787,-1.1938 2.2486,-140.3825 0.379,-142.6372 -1.175,-1.4165 -3.1995,-1.6018 -15.0852,-1.3688 z"
               style="fill:#f1db50;stroke:#000000;stroke-width:1.14758;stroke-opacity:0"
               id="path29" /></g></g><g
           id="g25"
           transform="matrix(0.55792492,0,0,0.55792492,1449.3202,-1211.3935)"
           style="fill:#353829;fill-opacity:1"><g
             id="g24"
             transform="matrix(1.0018138,0,0,1.008832,4.5230372,55.093282)"
             style="fill:#353829;fill-opacity:1"><g
               id="g23"
               style="fill:#353829;fill-opacity:1"><g
                 id="g5"
                 transform="translate(-102.64877,-61.160803)"><g
                   id="g21"
                   transform="matrix(1.1148756,0,0,1.1071197,211.30702,-349.03157)"
                   style="fill:#353829;fill-opacity:1"><g
                     id="g20"
                     style="fill:#eed84b;fill-opacity:1"
                     transform="rotate(-1.5001066,-1819.3507,3334.2955)"><path
                       d="m -1777.673,3161.7947 c -4.6308,-0.011 -9.3066,0.3857 -10.1221,1.2011 -0.8685,0.8685 -1.1648,10.7862 -1.1528,38.6851 0.01,20.6339 0.3363,37.9981 0.7295,38.5869 0.3932,0.5888 1.3723,1.3205 2.1753,1.626 v 0 c 1.9788,0.7532 41.2926,0.8612 43.2275,0.1187 2.976,-1.142 2.3951,-3.2035 -10.9336,-38.8228 -3.2047,-8.5639 -7.4703,-20.826 -9.479,-27.249 -2.0088,-6.4231 -4.0758,-12.2258 -4.5938,-12.895 -0.6342,-0.8187 -5.2203,-1.2383 -9.851,-1.2495 z"
                       style="fill:#eed84b;fill-opacity:1;stroke:#000000;stroke-width:1.14758;stroke-opacity:0"
                       id="path18"
                       sodipodi:nodetypes="cscssssssscc" /><path
                       d="m -1679.8222,3163.3288 c -14.3547,0 -18.9628,0.3006 -19.7842,1.2905 -0.8066,0.9719 0.6298,6.1956 5.8169,21.1655 3.7878,10.9321 9.7372,28.4175 13.2203,38.855 3.4833,10.4374 6.8337,19.2987 7.4458,19.6919 0.6121,0.3933 4.4753,0.7175 8.5854,0.7295 5.4555,0.011 7.8778,-0.3911 8.9751,-1.4883 1.3035,-1.3034 1.4963,-6.3085 1.4443,-37.7109 -0.033,-19.9144 -0.2795,-37.1644 -0.5493,-38.3335 -0.8018,-3.4742 -5.1495,-4.1997 -25.1543,-4.1997 z"
                       style="fill:#eed84b;fill-opacity:1;stroke:#000000;stroke-width:1.14758;stroke-opacity:0"
                       id="path19" /><path
                       d="m -1745.5439,3162.368 c -9.7248,0.2771 -8.4185,2.3689 -5.0625,11.9033 1.7387,4.94 7.6391,22.1192 13.1118,38.1767 8.4055,24.6623 10.3152,29.3831 12.3018,30.3985 2.3748,1.2139 39.8499,1.8499 41.0039,0.6958 0.8216,-0.8215 -0.4268,-4.9165 -9.0293,-29.6338 -4.3776,-12.5785 -9.6828,-28.2166 -11.7905,-34.752 -5.6429,-17.4976 -3.6796,-16.276 -26.8008,-16.6684 -6.0254,-0.1022 -10.4928,-0.2125 -13.7344,-0.1201 z"
                       style="fill:#eed84b;fill-opacity:1;stroke:#000000;stroke-width:1.14758;stroke-opacity:0"
                       id="path20" /></g></g><path
                   d="m -1614.9549,2880.9291 c -0.8555,-0.01 -1.2436,0.3804 -1.2993,1.128 -0.05,0.669 -0.1592,36.0319 -0.2432,78.5844 l -0.1523,77.3687 -2.1914,4.7476 c -2.7181,5.892 -29.8895,33.4039 -35.7627,36.2109 -3.6911,1.7639 -6.9687,1.8683 -63.2578,1.9951 l -59.3643,0.1333 -0.4863,7.856 c -0.3858,6.2299 -0.8691,8.1352 -2.3335,9.2036 -2.8148,2.0533 -37.3101,2.7017 -104.707,1.9673 -49.0167,-0.5341 -58.5644,-0.4191 -59.9341,0.7177 -1.3801,1.1454 -1.5352,2.5455 -1.0078,9.1597 2.1287,26.6971 11.5167,53.0774 29.792,83.7173 10.967,18.387 25.1639,37.4215 35.9985,48.2651 9.4711,9.4789 31.0806,24.3217 55.4795,38.1065 1.8733,1.0584 5.1568,2.9362 7.2978,4.1733 2.141,1.2374 5.4921,2.5419 7.4458,2.8989 3.3954,0.6205 3.5828,0.5109 4.2378,-2.4711 0.9366,-4.2642 -0.3378,-15.5456 -2.0595,-18.2344 -0.7739,-1.2087 -3.2593,-3.0686 -5.5225,-4.1323 -7.2346,-3.4007 -6.8358,0.4712 -6.7998,-66.0821 0.03,-56.5781 0.1264,-59.8658 1.7944,-61.0854 1.3112,-0.9588 6.3905,-1.2922 19.8238,-1.3052 9.9337,-0.01 52.7024,-0.2899 95.042,-0.6226 42.3394,-0.3325 78.5733,-0.3065 80.5195,0.059 2.0843,0.3909 3.9751,1.4801 4.6011,2.6499 0.7188,1.343 1.2175,21.0912 1.541,61.0254 0.392,48.4024 0.242,59.4791 -0.835,61.4737 l -1.3139,2.4331 -74.4214,0.58 c -40.9313,0.3197 -75.8842,0.9112 -77.6734,1.314 -5.8366,1.3139 -6.0499,2.7964 -6.6987,46.5073 -0.3835,25.8362 -0.1503,48.4398 0.6943,67.27 1.0142,22.6111 1.0822,55.5798 0.3384,162.6592 -0.638,91.9379 -0.6165,134.7179 0.069,135.6269 1.0486,1.3907 12.8614,1.0433 30.041,-0.8847 4.1614,-0.4671 8.2184,-0.6 9.0146,-0.2945 3.8574,1.4803 70.8018,-9.3984 79.0547,-12.8466 1.8595,-0.7771 4.2697,-1.4136 5.3569,-1.4136 2.8775,0 31.1292,-9.6158 32.6529,-11.1138 1.0596,-1.042 1.3236,-25.4795 1.4707,-135.9463 l 0.1802,-134.6762 2.1782,-11.9341 c 5.4428,-29.8058 12.078,-50.5829 22.9145,-71.7597 7.45,-14.5593 21.8042,-34.0713 41.5254,-56.4449 18.6672,-21.1779 25.8577,-30.9484 36.5303,-49.6333 16.5109,-28.9061 22.4973,-46.9617 26.2939,-79.3081 2.69,-22.9172 1.3401,-52.1909 -3.375,-73.1894 -2.8164,-12.5428 -12.9746,-37.8345 -22.0708,-54.9522 -12.6759,-23.8542 -24.3395,-39.6068 -43.7461,-59.083 -18.4845,-18.5507 -32.0242,-29.0136 -47.8418,-36.9697 -4.6414,-2.3345 -7.3646,-3.4372 -8.7905,-3.4483 z"
                   style="fill:#353829;fill-opacity:1;stroke:#000000;stroke-width:1.14758;stroke-opacity:0"
                   id="path22"
                   sodipodi:nodetypes="sssccsscsssssssssssssssssssssccsssssssssscccssssssssss" /><path
                   d="m -1816.6469,2894.5935 c -0.3982,-0.02 -0.8749,0.05 -1.4224,0.2146 -3.4546,1.0397 -24.6661,12.9893 -31.5026,17.747 -7.5379,5.2458 -26.0945,22.4069 -34.3205,31.7397 -25.7702,29.2371 -46.3296,69.353 -54.3369,106.0196 -4.8946,22.4128 -6.5074,37.9301 -4.1449,39.8909 0.688,0.5709 3.0282,1.1829 5.2005,1.3598 6.6875,0.5441 154.0169,0.3546 154.0169,-0.1983 10e-5,-0.2856 -5.6846,-5.8985 -12.633,-12.472 -8.3257,-7.8764 -13.6458,-13.7787 -15.6015,-17.3101 l -2.9669,-5.3585 -0.2312,-79.722 c -0.1268,-43.8474 -0.4589,-80.3186 -0.738,-81.046 -0.2074,-0.5402 -0.6558,-0.8301 -1.3195,-0.8647 z"
                   style="fill:#353829;fill-opacity:1;stroke:#000000;stroke-width:1.16805;stroke-opacity:0"
                   id="path23" /></g></g></g></g></g><g
         id="g9"
         style="fill:#27292c;fill-opacity:1;stroke:url(#radialGradient12);stroke-width:9.53065;stroke-dasharray:none"
         transform="matrix(-1.0366588,-0.52185781,0.48829655,-1.1079097,678.65336,899.88999)"><path
           style="fill:#27292c;fill-opacity:1;stroke:#000000;stroke-width:0;stroke-dasharray:none;stroke-opacity:0.016692"
           d="m 35.243,94.888 c 12.885,19.483 24.198,42.637 25.982,46.618 0.511,1.148 1.316,3.856 2.219,7.169 6.282,-8.877 13.946,-16.214 23.105,-21.599 13.07,-7.68 28.093,-10.845 44.312,-10.084 -3.916,-6.217 -7.479,-12.619 -9.192,-17.601 C 117.269,86.615 99.673268,29.746358 90.345268,7.223358 88.684425,-3.9647164 57.277324,19.417619 33.25477,30.251131 10.697186,40.423983 2.6553626,40.209991 4.7543626,44.191991 6.8483626,48.172991 22.358,75.405 35.243,94.888 Z"
           id="path7"
           sodipodi:nodetypes="sccccccscs" /><path
           style="fill:#27292c;fill-opacity:1;stroke:url(#radialGradient10);stroke-width:0;stroke-dasharray:none"
           d="m 114.37,167.478 c 27.446,-11.313 33.314,2.41 33.314,2.41 8.697,-8.066 2.622,-17.601 2.622,-17.601 0,0 2.197,-4.085 -1.36,-8.278 -2.176,-2.556 -9.187,-11.835 -15.322,-21.582 -16.219,-0.761 -31.242,2.404 -44.312,10.084 -9.159,5.385 -16.823,12.717 -23.105,21.599 2.235,8.186 5.102,20.179 5.847,22.268 1.05,2.932 3.769,6.913 6.288,7.435 2.513,0.522 3.981,2.932 3.981,2.932 3.247,6.598 13.407,7.016 13.407,7.016 0,0 -8.811,-14.97 18.64,-26.283 z"
           id="path8" /><path
           style="fill:#27292c;fill-opacity:1;stroke:url(#radialGradient11);stroke-width:0;stroke-dasharray:none"
           d="M 197.43288,319.60246 C 192.65089,291.98953 192.083,285.314 194.177,271.483 c 2.094,-13.826 0,-15.088 0,-15.088 -21.37,-29.333 -47.331,-84.73 -47.331,-84.73 -3.459,-5.76 -17.182,-8.202 -34.152,-0.631 -17.601,7.859 -16.344,18.645 -16.344,18.645 l 29.86,88.026 c 1.05,2.828 5.869,4.188 5.869,4.188 27.973,8.066 50.774,36.333 53.814,40.733 3.04,4.4 5.238,2.725 5.238,2.725 l -32.623,-73.063 c -2.491,-0.571 -5.031,-2.736 -6.527,-5.945 -2.165,-4.65 -1.305,-9.633 1.92,-11.134 3.225,-1.501 7.593,1.05 9.758,5.7 1.632,3.503 1.539,7.19 0.022,9.442 l 31.101,70.273 c 1.0488,2.36978 3.16501,1.9472 2.65088,-1.02154 z"
           id="path9"
           sodipodi:nodetypes="scccccccscccsccss" /></g></g></g></svg>
